<svg width="14" height="14" viewBox="0 0 14 14" fill="none" xmlns="http://www.w3.org/2000/svg">
<g clip-path="url(#clip0_4576_2520)">
<path d="M9.91644 7.58338L7.58311 12.8334C7.11898 12.8334 6.67386 12.649 6.34567 12.3208C6.01748 11.9926 5.83311 11.5475 5.83311 11.0834V8.75005H2.53144C2.36233 8.75196 2.19482 8.71709 2.04052 8.64784C1.88623 8.57859 1.74883 8.47662 1.63786 8.349C1.52688 8.22138 1.44498 8.07115 1.39783 7.90874C1.35067 7.74632 1.33939 7.57559 1.36477 7.40838L2.16977 2.15838C2.21196 1.88019 2.35327 1.62661 2.56766 1.44438C2.78205 1.26214 3.05508 1.16353 3.33644 1.16671H9.91644M9.91644 7.58338V1.16671M9.91644 7.58338H11.4739C11.8041 7.58922 12.1249 7.47364 12.3754 7.25857C12.626 7.04351 12.7888 6.74393 12.8331 6.41672V2.33338C12.7888 2.00617 12.626 1.70659 12.3754 1.49153C12.1249 1.27646 11.8041 1.16088 11.4739 1.16671H9.91644" stroke="#5B9CDE" stroke-width="1.16667" stroke-linecap="round" stroke-linejoin="round"/>
</g>
<defs>
<clipPath id="clip0_4576_2520">
<rect width="14" height="14" fill="white"/>
</clipPath>
</defs>
</svg>
