<svg width="14" height="14" viewBox="0 0 14 14" fill="none" xmlns="http://www.w3.org/2000/svg">
<g clip-path="url(#clip0_4576_2516)">
<path d="M4.08317 6.4165L6.4165 1.1665C6.88063 1.1665 7.32575 1.35088 7.65394 1.67907C7.98213 2.00726 8.1665 2.45238 8.1665 2.9165V5.24984H11.4682C11.6373 5.24792 11.8048 5.2828 11.9591 5.35205C12.1134 5.4213 12.2508 5.52327 12.3618 5.65089C12.4727 5.77851 12.5546 5.92873 12.6018 6.09115C12.6489 6.25357 12.6602 6.4243 12.6348 6.5915L11.8298 11.8415C11.7876 12.1197 11.6463 12.3733 11.4319 12.5555C11.2176 12.7377 10.9445 12.8364 10.6632 12.8332H4.08317M4.08317 6.4165V12.8332M4.08317 6.4165H2.33317C2.02375 6.4165 1.72701 6.53942 1.50821 6.75821C1.28942 6.97701 1.1665 7.27375 1.1665 7.58317V11.6665C1.1665 11.9759 1.28942 12.2727 1.50821 12.4915C1.72701 12.7103 2.02375 12.8332 2.33317 12.8332H4.08317" stroke="#ED3A3A" stroke-width="1.16667" stroke-linecap="round" stroke-linejoin="round"/>
</g>
<defs>
<clipPath id="clip0_4576_2516">
<rect width="14" height="14" fill="white"/>
</clipPath>
</defs>
</svg>
